<svg version="1.1" id="Layer_1" xmlns="http://www.w3.org/2000/svg" xmlns:xlink="http://www.w3.org/1999/xlink" x="0px" fill="#64edff" y="0px" width="58px" height="58px" viewBox="0 0 600 600" enable-background="new 0 0 600 600" xml:space="preserve"><path id="color_x5F_1_37_" d="M480.028,358.48L300.001,46.688L7.481,553.313h585.037L480.028,358.48L480.028,358.48z     M464.562,367.536l95.413,165.253l-303.162-44.621L464.562,367.536z M238.948,477.76V305.803L387.855,391.8L238.948,477.76z     M455.571,351.969l-45.14,26.237l-76.076-236.171L455.571,351.969z M297.66,86.569l91.987,285.565l-150.7-87.02v-96.901    L297.66,86.569z M221.027,219.243v67.859L86.572,452.135L221.027,219.243z M41.858,535.391l179.168-219.914v172.759l-81.147,47.155    H41.858z M231.94,502.621l222.64,32.77H175.549L231.94,502.621z"></path></svg>