<svg version="1.1" id="Layer_1" xmlns="http://www.w3.org/2000/svg" xmlns:xlink="http://www.w3.org/1999/xlink" x="0px" y="0px" width="58px" height="58px" viewBox="0 0 595.275 595.275" enable-background="new 0 0 595.275 595.275" xml:space="preserve"><path id="color_x5F_1" fill="white" d="M590.717,336.654v56.06c0,81.33-65.928,147.258-147.258,147.258H247.985    c-81.327,0-147.257-65.928-147.257-147.258v-9.385c14.134-11.193,24.169-27.343,27.373-45.868l22.597-0.051    c9.12-0.021,16.502-7.431,16.481-16.554c-0.021-9.108-7.409-16.48-16.517-16.48c-0.011,0-0.022,0-0.039,0l-24.189,0.054    c-4.324-15.419-13.493-28.777-25.705-38.452v-63.417c0-81.328,65.93-147.257,147.257-147.257h195.474    c81.33,0,147.258,65.929,147.258,147.257l-0.002,101.059c0,0-0.002,0-0.005,0h-0.005l-75.777,0.047    c-3.128,0-5.902-2.225-6.602-5.301c-15.241-67.49-26.512-108.471-54.393-108.471c-29.129,0-36.013,33.362-52.643,113.957    l-5.519,26.565c-10.381,49.517-17.937,77.121-23.361,92.165c-4.634-15.174-11.318-43.526-20.206-96.478    c-21.279-126.754-30.927-154.119-54.326-154.119c-22.197,0-31.892,28.71-56.108,117.537l-4.51,14.69l-26.757,0.048    c-9.117,0.018-16.5,7.424-16.483,16.549c0.015,9.11,7.409,16.485,16.518,16.485c0.009,0,0.021,0,0.031,0l26.755-0.048    c15.088-0.031,28.413-10.195,32.402-24.713l3.914-14.317c5.953-21.824,15.576-57.117,23.529-78.593    c8.581,29.288,17.889,84.745,22.454,111.957c19.866,118.322,31.503,137.501,51.63,137.501c0.019,0,0.046,0,0.062,0    c22.886-0.043,35.089-28.39,56.798-131.878l5.532-26.674c7.248-35.123,14.16-68.625,20.249-82.691    c8.469,16.954,18.189,59.995,22.212,77.809c4.135,18.286,20.093,31.055,38.823,31.055c0.007,0,0.022,0,0.022,0L590.717,336.654z     M54.439,274.769c-27.548,0-49.88,22.331-49.88,49.88c0,27.548,22.333,49.878,49.88,49.878c27.548,0,49.879-22.33,49.879-49.878    C104.319,297.1,81.988,274.769,54.439,274.769z"></path></svg>