<svg xmlns="http://www.w3.org/2000/svg" width="174.639" height="174.64" viewBox="0 0 174.639 174.64">
  <g id="Grupo_2" data-name="Grupo 2" transform="translate(-872.68 -452.68)">
    <g id="Grupo_1" data-name="Grupo 1">
      <path id="Caminho_1" data-name="Caminho 1" d="M1015.38,506.915l-3.879,3.879-5.431-5.43a4.243,4.243,0,1,0-6,6l5.431,5.432-3.318,3.318-5.432-5.431a4.243,4.243,0,1,0-6,6l5.43,5.431-3.319,3.319L987.429,524a4.243,4.243,0,0,0-6,6l5.431,5.431-3.319,3.32-5.431-5.432a4.243,4.243,0,1,0-6,6l5.43,5.431-6.3,6.3L948.945,528.76l44.141-44.14a2.279,2.279,0,0,1,3.143,0l19.151,19.15a2.228,2.228,0,0,1,0,3.145Zm4.49-10.656,2.418-2.418a6.652,6.652,0,0,0,0-9.4l-1.564-1.565,25.85-25.85a2.546,2.546,0,0,0-3.6-3.6l-25.851,25.851-1.564-1.564a6.652,6.652,0,0,0-9.4,0l-2.417,2.418-1.512-1.511a10.706,10.706,0,0,0-15.145,0l-44.208,44.207a7.512,7.512,0,0,0-9.962.625,7.591,7.591,0,0,0,0,10.721l9.119,9.119L886,599.322l-6.08-6.08a4.243,4.243,0,0,0-6,6l26.834,26.834a4.243,4.243,0,0,0,6-6L900.678,614l56.03-56.03,9.12,9.119a7.562,7.562,0,0,0,11.345-9.963l28-28,.005,0,0-.005,9.311-9.311,0,0,0-.005,6.876-6.876a10.72,10.72,0,0,0,0-15.146l-1.51-1.511Z" fill="#fff"/>
      <path id="Caminho_2" data-name="Caminho 2" d="M1022.379,545.163c0-7.155-2-15.162-4-21.668l-13.443,14.485c.473,2.756,1.151,4.067,1.151,7.183a53.815,53.815,0,0,1-53.753,53.753c-8.064,0-17.462-1.8-24.334-4.992l-11.834,12.229c10.171,5.762,23.666,9.057,36.168,9.057A70.126,70.126,0,0,0,1022.379,545.163Z" fill="#fff"/>
      <path id="Caminho_3" data-name="Caminho 3" d="M894.174,584.165,905.847,572.1a53.712,53.712,0,0,1,46.485-80.694,70.159,70.159,0,0,1,12.781,1.643l13.373-13.026a79.065,79.065,0,0,0-26.154-4.911,70.016,70.016,0,0,0-58.158,109.05Z" fill="#fff"/>
    </g>
  </g>
</svg>
