<svg xmlns="http://www.w3.org/2000/svg" viewBox="240 15 140 220" class="svg-logo" width="100" height="100">
    <g data-element="wrapper" transform="translate(-456.7500000000028 -305.62503738403507) scale(2.450000000000009)"><g><g data-element="icon" transform="scale(0.17223506108442888) translate(1531.256695915671 761.9602978251875)"><path id="color_x5F_1" fill="white" d="M425.697,284.602c7.092,83.799-53.945,158.377-138.006,167.503 c-28.823,3.128-56.628-1.884-81.201-13.127C238.961,424.06,343.845,371.769,425.697,284.602z M544.395,142.257 c-0.063,1.478-3.93,49.81-29.299,75.934c0.025,6.328-1.54,23.017-16.352,44.611c-1.582,2.304-4.967,2.274-6.11-0.077l-7.766-15.962 l-2.413,2.268c-4.292,4.033-11.041,3.823-15.073-0.468l-4.153-4.42c-1.087-0.043-2.125-0.186-3.16-0.333 c0.253-0.339,0.514-0.672,0.766-1.011l-1.025-1.805c0,0-121.141,115.849-308.631,159.449c-52.56,12.517-90.319,11.599-98.614-5.711 c-8.075-16.85,13.422-45.727,53.938-77.802c0.289,2.525,0.653,5.141,1.093,7.824c-17.551,17.748-30.255,33.298-25.516,43.188 c5.196,10.843,25.712,13.602,55.534,9.493c-0.014-0.025-0.031-0.05-0.046-0.075c15.079-2.147,30.534-5.534,45.698-9.623 c0.355-0.097,0.715-0.198,1.073-0.297c1.825-0.497,3.646-1.004,5.461-1.52c34.088-9.776,73.294-24.666,113.26-43.817 c2.1-1.006,4.165-2.024,6.242-3.038C194.985,357.066,145.44,360.467,128.582,360c-6.188-14.137-10.369-29.438-12.123-45.592 c-9.26-85.308,52.388-161.972,137.696-171.232c71.351-7.746,136.599,34.141,161.472,97.959c5.937-4.188,15.811-11.275,22.733-16.846 c-0.5-2.324-0.745-4.771-0.689-7.343l-4.153-4.419c-4.033-4.292-3.824-11.039,0.467-15.072l2.414-2.269l-15.45-8.741 c-2.274-1.287-2.095-4.669,0.303-6.104c22.473-13.444,39.228-13.972,45.54-13.553C494.437,143.091,542.91,142.227,544.395,142.257z M511.699,172.984c-6.142-6.536-16.417-6.854-22.952-0.713c-6.534,6.141-6.854,16.417-0.712,22.952 c6.142,6.535,16.417,6.854,22.952,0.713C517.523,189.794,517.842,179.519,511.699,172.984z M323.313,359.939 c-97.425,69.089-182.435,76.412-182.435,76.412C209.65,456.728,323.313,359.939,323.313,359.939z"></path></g></g></g>

</svg>
 